Coordinates
version=1
nRows=5
nColumns=40
inDegrees=yes

Units are S.I. units (second, meters, Newtons, ...)
Angles are in degrees.

endheader
time	pelvis_tilt	pelvis_list	pelvis_rotation	pelvis_tx	pelvis_ty	pelvis_tz	hip_flexion_r	hip_adduction_r	hip_rotation_r	knee_angle_r	knee_angle_r_beta	ankle_angle_r	subtalar_angle_r	mtp_angle_r	hip_flexion_l	hip_adduction_l	hip_rotation_l	knee_angle_l	knee_angle_l_beta	ankle_angle_l	subtalar_angle_l	mtp_angle_l	lumbar_extension	lumbar_bending	lumbar_rotation	arm_flex_r	arm_add_r	arm_rot_r	elbow_flex_r	pro_sup_r	wrist_flex_r	wrist_dev_r	arm_flex_l	arm_add_l	arm_rot_l	elbow_flex_l	pro_sup_l	wrist_flex_l	wrist_dev_l
     49.25342857	     -6.39564649	     -6.38078028	      5.41194746	      0.96343703	      0.92026797	      0.47560270	      4.09047114	      5.37906902	    -14.81389416	     11.94967648	     11.94967648	     16.18836810	      3.47058566	     -2.38403006	     32.32525838	     -8.27243368	     -0.17156493	     21.94493255	     21.94493255	      4.73401375	    -10.64008563	      7.32736358	     -9.28646421	      6.91010208	      3.32545688	     46.01613927	    -15.93927410	     -0.66054559	     92.35970616	     44.49667249	      0.00000000	      0.00000000	    -12.71024834	     -7.73254159	     -1.20121708	     27.08270560	     45.39367786	      0.00000000	      0.00000000
     49.26685714	     -6.43660940	     -6.41135017	      5.12154792	      0.96404397	      0.91967248	      0.47413741	      3.58777854	      5.33673791	    -14.57855306	     11.92772077	     11.92772077	     16.46229354	      3.65085518	     -2.44289765	     31.84390327	     -8.36564660	     -0.53077990	     22.47159392	     22.47159392	      4.45213678	    -11.02682104	      7.30290695	     -8.94886929	      6.81170735	      3.35908623	     45.58231211	    -15.68854028	     -0.52635221	     92.39117619	     44.49125813	      0.00000000	      0.00000000	    -12.61119109	     -7.71875269	     -1.18167743	     27.12848864	     45.39300234	      0.00000000	      0.00000000
     49.28028571	     -6.34748236	     -6.55324866	      4.92707177	      0.96476228	      0.91930942	      0.47244592	      2.70728811	      5.44327581	    -14.61251754	     11.43459110	     11.43459110	     16.59069530	      4.39537771	     -2.22303579	     31.45110985	     -8.48139605	     -0.36425998	     23.26519541	     23.26519541	      4.15574755	    -11.77653976	      6.69200307	     -8.80224597	      6.85239080	      3.34452691	     44.76665778	    -15.32982297	     -0.42684570	     93.07574567	     44.47528846	      0.00000000	      0.00000000	    -12.52452604	     -7.70817693	     -1.07578738	     27.25353056	     45.38315993	      0.00000000	      0.00000000
     49.29371429	     -6.33659722	     -6.53316923	      4.66972775	      0.96524379	      0.91905575	      0.47064648	      2.17582916	      5.29932300	    -14.43467953	     11.44674629	     11.44674629	     16.78651655	      4.62792761	     -2.21618130	     31.06065346	     -8.46840342	     -0.39139841	     23.85772533	     23.85772533	      4.17239850	    -12.19473834	      6.48800449	     -8.60888632	      6.68617337	      3.28594595	     43.92411744	    -15.09902673	     -0.27349112	     93.13893649	     44.46861447	      0.00000000	      0.00000000	    -12.26102582	     -7.74063470	     -1.04808178	     27.38103257	     45.38474236	      0.00000000	      0.00000000
     49.30714286	     -6.33403865	     -6.53064169	      4.48740755	      0.96557377	      0.91898856	      0.46856289	      1.66066530	      5.11576055	    -14.60244628	     11.46084327	     11.46084327	     17.06738802	      5.39378854	     -1.79515520	     30.71247288	     -8.35838733	     -0.09815609	     24.34778099	     24.34778099	      4.09272948	    -13.00675228	      5.96733372	     -8.50065081	      6.58794490	      3.58988232	     42.50870960	    -15.42310705	     -0.50365865	     94.39610559	     44.46003701	      0.00000000	      0.00000000	    -11.74541692	     -7.83288796	     -0.85368126	     27.78517497	     45.37534805	      0.00000000	      0.00000000
